<?xml version="1.0" encoding="utf-8"?>
<!-- Generator: Adobe Illustrator 28.2.0, SVG Export Plug-In . SVG Version: 6.00 Build 0)  -->
<svg version="1.1" id="Layer_1" xmlns="http://www.w3.org/2000/svg" xmlns:xlink="http://www.w3.org/1999/xlink" x="0px" y="0px"
	 viewBox="0 0 500 500" style="enable-background:new 0 0 500 500;" xml:space="preserve">
<style type="text/css">
	.st0{fill:#FFFFFF;}
	.st1{fill:#011975;}
</style>
<path class="st0" d="M315,501c-105,0-209.5,0-314,0C1,334.3,1,167.7,1,1c166.7,0,333.3,0,500,0c0,166.7,0,333.3,0,500
	C439.2,501,377.3,501,315,501 M330.3,386.7c-36.2-36.3-72.5-72.6-109.1-109.2c-4.7,4.7-10.3,10.4-16,16
	c-14.5,14.2-35.7,14.2-50.2-0.1c-5.6-5.5-11.1-11.1-16.6-16.6c-15.9-16-16-36.8-0.1-52.7c7.9-7.9,15.7-15.7,23.5-23.5
	c-0.3-0.7-0.4-1-0.5-1.3c-8.5-14.1-7.2-28.7,3.4-39.3c10.3-10.2,24.7-11.3,38.5-3.1c0.9,0.5,2.2,1.1,3.1,0.9c7.7-2,15.3-4.2,23-6.3
	c16.5-4.5,33-9.1,49.6-13.5c2.2-0.6,4.7-1,6.8-0.6c6.7,1.3,9.7,7.5,7.6,15.3c-6.4,23.4-12.8,46.7-19,69.4c5,4.4,9.9,8.3,14.4,12.7
	c31.8,31.6,63.4,63.4,95.1,95c1.4,1.4,2.8,2.7,4.4,4.2c23-37.8,31.3-78.1,23.2-120.9C393.7,119.2,306.4,59.7,212.8,76.9
	C118.5,94.2,56.7,189.8,79.6,282.8c22,89.2,107,144,197.6,127.3c18.3-3.4,35.5-9.9,51.7-19.2C329.8,390.3,330.2,388.5,330.3,386.7z"
	/>
<path class="st1" d="M330.6,387c-0.4,1.5-0.8,3.3-1.8,3.9c-16.1,9.3-33.3,15.8-51.7,19.2C186.5,426.8,101.5,372,79.6,282.8
	c-22.9-93,39-188.6,133.2-205.9c93.7-17.2,181,42.3,198.8,136.3c8.1,42.8-0.2,83-23.2,120.9c-1.6-1.6-3.1-2.9-4.4-4.2
	c-31.7-31.7-63.4-63.4-95.1-95c-4.4-4.4-9.4-8.3-14.4-12.7c6.2-22.6,12.7-46,19-69.4c2.1-7.8-0.9-14-7.6-15.3
	c-2.2-0.4-4.6,0-6.8,0.6c-16.5,4.4-33.1,9-49.6,13.5c-7.7,2.1-15.3,4.3-23,6.3c-0.9,0.2-2.2-0.3-3.1-0.9
	c-13.8-8.2-28.2-7.1-38.5,3.1c-10.7,10.6-11.9,25.2-3.4,39.3c0.2,0.3,0.3,0.6,0.5,1.3c-7.8,7.8-15.6,15.6-23.5,23.5
	c-15.9,15.9-15.8,36.7,0.1,52.7c5.5,5.6,11,11.1,16.6,16.6c14.5,14.2,35.7,14.3,50.2,0.1c5.7-5.6,11.3-11.3,16-16
	C257.8,314.1,294.1,350.4,330.6,387z"/>
</svg>
